<?xml version="1.0"?>
<svg xmlns="http://www.w3.org/2000/svg" xmlns:xlink="http://www.w3.org/1999/xlink" version="1.1" id="Capa_1" x="0px" y="0px" width="512px" height="512px" viewBox="0 0 187.063 187.062" style="enable-background:new 0 0 187.063 187.062;" xml:space="preserve"><g><g>
	<path d="M166.477,103.788c0,2.351-1.905,4.244-4.22,4.244h-11.319c-0.913,0-1.79-0.279-2.509-0.871   c-0.311-0.207-31.907-23.382-61.427-23.382c-28.695,0-45.83,22.311-45.985,22.566c-0.804,1.017-2.058,1.687-3.374,1.687H24.792   c-2.326,0-4.229-1.894-4.229-4.244c0-2.302,1.903-4.201,4.229-4.201h10.842c4.938-5.803,22.941-24.25,51.356-24.25   c29.355,0,59.04,19.842,65.294,24.25h9.974C164.583,99.587,166.477,101.468,166.477,103.788z M162.257,112.624h-12.836   c-0.962,0-1.912,0.377-2.673,0.949c-0.268,0.244-28.911,23.297-58.307,23.297c-28.902,0-48.972-22.566-49.179-22.81   c-0.779-0.907-1.945-1.437-3.167-1.437H24.774c-2.326,0-4.223,1.899-4.223,4.25c0,2.302,1.897,4.201,4.223,4.201h9.49   c5.294,5.469,25.526,24.254,54.172,24.254c29.213,0,56.382-19.602,62.429-24.254h11.368c2.314,0,4.214-1.899,4.214-4.201   C166.477,114.523,164.583,112.624,162.257,112.624z M87.668,136.433c-14.111,0-25.59-11.484-25.59-25.605   c0-14.078,11.484-25.571,25.59-25.571c14.087,0,25.59,11.493,25.59,25.571C113.252,124.948,101.755,136.433,87.668,136.433z    M87.668,127.98c9.447,0,17.138-7.685,17.138-17.159c0-9.438-7.685-17.135-17.138-17.135c-9.459,0-17.147,7.696-17.147,17.135   C70.521,120.296,78.209,127.98,87.668,127.98z M89.763,99.544c0-1.156-0.922-2.106-2.095-2.106   c-7.401,0-13.381,6.016-13.381,13.384c0,1.182,0.922,2.095,2.101,2.095c1.179,0,2.101-0.913,2.101-2.095   c0-5.066,4.116-9.194,9.186-9.194C88.834,101.639,89.763,100.726,89.763,99.544z M19.909,87.314L7.401,72.831   C5.831,71.053,3.2,70.886,1.446,72.42c-1.739,1.52-1.946,4.153-0.423,5.928L13.536,92.84c0.85,0.98,2.021,1.468,3.2,1.468   c0.983,0,1.946-0.365,2.75-1.023C21.236,91.763,21.431,89.086,19.909,87.314z M185.64,72.536c-1.724-1.565-4.385-1.4-5.955,0.38   l-12.738,14.285c-1.547,1.721-1.407,4.396,0.358,5.919c0.804,0.736,1.791,1.072,2.783,1.072c1.169,0,2.313-0.445,3.166-1.407   l12.739-14.282C187.54,76.771,187.4,74.101,185.64,72.536z M99.074,66.645c2.316,0,4.211-1.896,4.211-4.241V45.932   c0-2.301-1.888-4.199-4.211-4.199c-2.326,0-4.229,1.897-4.229,4.199v16.471C94.838,64.754,96.748,66.645,99.074,66.645z    M38.054,75.961c0.767,1.403,2.207,2.213,3.711,2.213c0.673,0,1.376-0.165,2.012-0.536c2.034-1.111,2.801-3.669,1.69-5.724   l-7.864-14.486c-1.108-2.059-3.702-2.801-5.724-1.69c-2.031,1.118-2.792,3.666-1.69,5.724L38.054,75.961z M68.862,68.827   c0.332,0,0.679-0.036,1.029-0.131c2.262-0.581,3.623-2.874,3.069-5.139l-4.05-16.012c-0.603-2.213-2.761-3.623-5.124-3.042   c-2.262,0.572-3.629,2.886-3.069,5.1l4.056,16.011C65.264,67.555,66.975,68.827,68.862,68.827z M124.383,68.715   c0.353,0.088,0.694,0.125,1.022,0.125c1.9,0,3.605-1.273,4.092-3.218l4.037-16.005c0.555-2.265-0.804-4.54-3.068-5.094   c-2.308-0.545-4.536,0.816-5.121,3.036l-4.025,16.005C120.76,65.829,122.125,68.127,124.383,68.715z M151.145,78.835   c1.492,0,2.941-0.816,3.708-2.213l7.861-14.492c1.108-2.058,0.354-4.6-1.687-5.718c-2.021-1.072-4.616-0.335-5.724,1.69   l-7.867,14.492c-1.121,2.058-0.359,4.606,1.692,5.724C149.769,78.667,150.463,78.835,151.145,78.835z" data-original="#000000" class="active-path" data-old_color="#000000" fill="#FFFFFF"/>
</g></g> </svg>
